<?xml version="1.0" encoding="UTF-8" standalone="no"?>
<!-- Created with Inkscape (http://www.inkscape.org/) -->

<svg
   width="61.423889mm"
   height="65.225121mm"
   viewBox="0 0 61.423889 65.225121"
   version="1.1"
   id="svg1"
   xml:space="preserve"
   inkscape:version="1.4.3 (0d15f75, 2025-12-25)"
   sodipodi:docname="Blossom 1.svg"
   inkscape:export-filename="Blossom 1- new.svg"
   inkscape:export-xdpi="224.38748"
   inkscape:export-ydpi="224.38748"
   xmlns:inkscape="http://www.inkscape.org/namespaces/inkscape"
   xmlns:sodipodi="http://sodipodi.sourceforge.net/DTD/sodipodi-0.dtd"
   xmlns="http://www.w3.org/2000/svg"
   xmlns:svg="http://www.w3.org/2000/svg"
   xmlns:rdf="http://www.w3.org/1999/02/22-rdf-syntax-ns#"
   xmlns:cc="http://creativecommons.org/ns#"
   xmlns:dc="http://purl.org/dc/elements/1.1/"><title
     id="title50">Accelerate Inclusion Logo</title><sodipodi:namedview
     id="namedview1"
     pagecolor="#ffffff"
     bordercolor="#000000"
     borderopacity="0.25"
     inkscape:showpageshadow="2"
     inkscape:pageopacity="0.0"
     inkscape:pagecheckerboard="0"
     inkscape:deskcolor="#d1d1d1"
     inkscape:document-units="mm"
     inkscape:zoom="0.68862935"
     inkscape:cx="-215.64576"
     inkscape:cy="481.39104"
     inkscape:window-width="1920"
     inkscape:window-height="991"
     inkscape:window-x="-9"
     inkscape:window-y="-9"
     inkscape:window-maximized="1"
     inkscape:current-layer="layer1"
     inkscape:export-bgcolor="#ffffff00"
     showgrid="false"
     inkscape:clip-to-page="true" /><defs
     id="defs1"><rect
       x="1639.4886"
       y="582.31616"
       width="143.76384"
       height="104.55552"
       id="rect48" /></defs><g
     inkscape:label="Layer 1"
     inkscape:groupmode="layer"
     id="layer1"
     transform="translate(-146.02843,0.6167984)"><path
       style="fill:#ff8080;fill-opacity:1;stroke:#ffffff;stroke-width:2.5;stroke-dasharray:none;stroke-opacity:1"
       d="m 184.72504,61.860035 c -1.12618,-0.43737 -3.22221,-1.50555 -4.04483,-2.06131 -1.39152,-0.94011 -3.29005,-3.78512 -4.44679,-6.66367 -0.67655,-1.68358 -1.49803,-2.5507 -2.41645,-2.5507 -0.901,0 -1.67054,0.63805 -2.49168,2.06595 -0.5622,0.97762 -1.34548,2.18484 -1.75094,2.69861 -1.25156,1.58593 -3.99941,2.82313 -6.58024,2.9627 -1.33736,0.0723 -1.76677,0.005 -2.15927,-0.34026 -0.36289,-0.3189 -0.823,-1.2895 -1.2263,-2.58688 -0.36695,-1.18043 -0.65766,-1.61283 -1.30402,-1.93961 -0.42837,-0.21657 -0.69453,-0.25162 -2.41966,-0.31859 -1.06608,-0.0414 -2.01728,-0.10881 -2.11377,-0.14982 -0.23796,-0.10115 -0.64625,-1.00922 -0.86051,-1.91384 -0.22608,-0.95451 -0.25205,-3.89896 -0.0441,-4.99512 0.50071,-2.63893 1.97955,-4.85011 4.71682,-7.05269 1.57953,-1.27098 2.0111,-1.87667 2.0111,-2.82246 0,-0.62519 -0.33185,-1.103668 -1.02044,-1.471329 -0.49982,-0.266867 -1.00523,-0.397455 -3.20277,-0.827531 -1.92038,-0.375832 -3.994,-1.592087 -5.29927,-3.108217 -1.70207,-1.977026 -2.79097,-4.586559 -2.79097,-6.68852 0,-0.804849 0.0153,-0.862013 0.30637,-1.145992 0.27975,-0.272926 0.99615,-0.623603 2.25726,-1.104931 0.64316,-0.245473 1.09888,-0.579798 1.37624,-1.009628 0.47446,-0.735293 0.53391,-1.483093 0.28415,-3.57436 -0.295,-2.470085 -0.19995,-3.077928 0.57827,-3.697841 2.62962,-2.094694 7.82513,-1.447814 11.83768,1.473885 1.39851,1.018305 2.20019,1.430988 2.77891,1.430505 0.52365,-4.37e-4 1.03041,-0.261374 1.2794,-0.658773 0.26504,-0.423033 0.46505,-1.460919 0.56844,-2.949769 0.055,-0.791622 0.14841,-2.137842 0.20764,-2.9915924 0.12591,-1.81494 0.37228,-2.99358 0.85279,-4.07972 0.60853,-1.37553 1.71968,-2.89873 2.79946,-3.83758 0.72242,-0.62815 1.92786,-1.31775 2.30346,-1.31775 0.33583,0 1.34204,1.19254 1.8859,2.23513 1.24629,2.38917 1.77232,2.97255 2.68031,2.97255 0.66989,0 1.08774,-0.22684 2.55261,-1.38576 1.3379,-1.05846 2.18049,-1.53179 2.93233,-1.64728 0.4881,-0.075 0.49191,-0.0732 0.98314,0.45907 1.15769,1.25437 2.5032,4.23379 2.90099,6.42378 0.27773,1.5290304 0.21086,2.7480094 -0.26361,4.8058274 -0.54746,2.374362 -0.48627,3.110623 0.3172,3.816693 0.74796,0.657295 1.68213,0.605065 3.514,-0.196473 1.42158,-0.622012 2.27805,-0.797823 3.88407,-0.797296 2.17428,7.14e-4 4.02783,0.426738 5.67763,1.304962 0.62921,0.334936 1.02214,0.652308 1.72999,1.397303 1.3628,1.434316 1.33941,1.268149 0.39909,2.835352 -0.87095,1.451585 -1.41115,2.590419 -1.52152,3.207651 -0.18461,1.032361 0.46406,1.985916 2.12578,3.124937 1.23202,0.84449 1.69339,1.272494 1.69339,1.570945 0,0.121702 -0.16305,0.576608 -0.36234,1.0109 -1.00629,2.192938 -2.76159,3.874524 -5.50282,5.271712 -1.54842,0.78922 -2.33185,0.97929 -4.55924,1.10614 -2.53565,0.14441 -3.30147,0.36962 -3.72527,1.0955 -0.47708,0.81714 -0.19649,1.70904 1.15915,3.68452 0.92708,1.35098 1.46984,2.40179 1.89537,3.66953 0.86686,2.58256 0.99203,5.28332 0.36045,7.77713 -0.26119,1.0313 -0.76145,2.28782 -1.03786,2.60679 -0.23508,0.27129 -1.00533,0.2476 -2.43338,-0.0749 -2.579,-0.58233 -2.90742,-0.38065 -4.32193,2.65408 -0.49116,1.05376 -0.97677,2.01716 -1.07913,2.1409 -0.17395,0.2103 -0.73706,0.47234 -0.98995,0.46067 -0.0616,-0.003 -0.45778,-0.13945 -0.88036,-0.30357 z"
       id="path3"
       sodipodi:nodetypes="sssssssssssssssssssssssssssssssssssssssssssssssssssssssssssscss" /><g
       id="g3"
       transform="translate(36.500646,-18.442432)"><circle
         style="fill:#ffffff;fill-opacity:1;stroke:#ffffff;stroke-width:1.2;stroke-linecap:round;stroke-linejoin:bevel;stroke-dasharray:none;stroke-opacity:1"
         id="path42"
         cx="140.43144"
         cy="-50.356701"
         r="1.5"
         transform="scale(1,-1)" /><g
         id="g44"
         transform="rotate(120.23257,19.552893,173.64367)"
         style="fill:#ffffff;fill-opacity:1;stroke:#ffffff;stroke-opacity:1"><path
           style="fill:#ffffff;fill-opacity:1;stroke:#ffffff;stroke-width:1.69181;stroke-linecap:round;stroke-linejoin:bevel;stroke-dasharray:none;stroke-opacity:1"
           d="m -154.56519,135.61367 c 11.86329,-7.75075 11.86329,-7.75075 11.86329,-7.75075"
           id="path41-5" /><circle
           style="fill:#ffffff;fill-opacity:1;stroke:#ffffff;stroke-width:1.2;stroke-linecap:round;stroke-linejoin:bevel;stroke-dasharray:none;stroke-opacity:1"
           id="path42-4-3"
           cx="-141.41931"
           cy="126.30676"
           r="1.5" /><circle
           style="fill:#ffffff;fill-opacity:1;stroke:#ffffff;stroke-width:1.2;stroke-linecap:round;stroke-linejoin:bevel;stroke-dasharray:none;stroke-opacity:1"
           id="path42-4-37"
           cx="-155.95912"
           cy="135.97266"
           r="1.5" /></g><g
         id="g44-1"
         transform="rotate(171.70261,-0.86979548,101.24934)"
         style="fill:#ffffff;fill-opacity:1;stroke:#ffffff;stroke-opacity:1"><path
           style="fill:#ffffff;fill-opacity:1;stroke:#ffffff;stroke-width:1.69181;stroke-linecap:round;stroke-linejoin:bevel;stroke-dasharray:none;stroke-opacity:1"
           d="m -154.56519,135.61367 c 11.86329,-7.75075 11.86329,-7.75075 11.86329,-7.75075"
           id="path41-5-5" /><circle
           style="fill:#ffffff;fill-opacity:1;stroke:#ffffff;stroke-width:1.2;stroke-linecap:round;stroke-linejoin:bevel;stroke-dasharray:none;stroke-opacity:1"
           id="path42-4-3-4"
           cx="-141.41931"
           cy="126.30676"
           r="1.5" /><circle
           style="fill:#ffffff;fill-opacity:1;stroke:#ffffff;stroke-width:1.2;stroke-linecap:round;stroke-linejoin:bevel;stroke-dasharray:none;stroke-opacity:1"
           id="path42-4-37-2"
           cx="-155.95912"
           cy="135.97266"
           r="1.5" /></g><g
         id="g2"
         transform="translate(-0.76843467,-0.38421733)"><g
           id="g1"
           inkscape:transform-center-x="35.732212"
           inkscape:transform-center-y="18.442432"><g
             id="g44-4"
             transform="rotate(-125.17982,-24.842525,15.585684)"
             style="fill:#ffffff;fill-opacity:1;stroke:#ffffff;stroke-opacity:1"><path
               style="fill:#ffffff;fill-opacity:1;stroke:#ffffff;stroke-width:1.69181;stroke-linecap:round;stroke-linejoin:bevel;stroke-dasharray:none;stroke-opacity:1"
               d="m -154.56519,135.61367 c 11.86329,-7.75075 11.86329,-7.75075 11.86329,-7.75075"
               id="path41-5-1" /><circle
               style="fill:#ffffff;fill-opacity:1;stroke:#ffffff;stroke-width:1.2;stroke-linecap:round;stroke-linejoin:bevel;stroke-dasharray:none;stroke-opacity:1"
               id="path42-4-3-2"
               cx="-141.41931"
               cy="126.30676"
               r="1.5" /><circle
               style="fill:#ffffff;fill-opacity:1;stroke:#ffffff;stroke-width:1.2;stroke-linecap:round;stroke-linejoin:bevel;stroke-dasharray:none;stroke-opacity:1"
               id="path42-4-37-0"
               cx="-155.95912"
               cy="135.97266"
               r="1.5" /></g></g></g></g><text
       xml:space="preserve"
       transform="scale(0.26458333)"
       id="text48"
       style="font-weight:bold;font-size:53.3333px;line-height:0.4;font-family:Calibri;-inkscape-font-specification:'Calibri, Bold';font-variant-position:super;letter-spacing:2px;writing-mode:lr-tb;direction:ltr;white-space:pre;shape-inside:url(#rect48);display:inline;fill:#4a1f63;fill-opacity:1;stroke:#ffffff;stroke-width:9.44882;stroke-linecap:round;stroke-linejoin:bevel;stroke-dasharray:none;stroke-opacity:1" /></g><metadata
     id="metadata50"><rdf:RDF><cc:Work
         rdf:about=""><dc:title>Accelerate Inclusion Logo</dc:title></cc:Work></rdf:RDF></metadata></svg>
